<?xml version="1.0" encoding="utf-8"?>
<!-- Generator: Adobe Illustrator 23.0.1, SVG Export Plug-In . SVG Version: 6.00 Build 0)  -->
<svg version="1.1" id="Layer_1" xmlns="http://www.w3.org/2000/svg" xmlns:xlink="http://www.w3.org/1999/xlink" x="0px" y="0px"
	 viewBox="0 0 1062.2 296.3" style="enable-background:new 0 0 1062.2 296.3;" xml:space="preserve">
<style type="text/css">
	.st0{fill:none;stroke:#EC2227;stroke-width:5;stroke-miterlimit:10;}
	.st1{fill:none;stroke:#2BACE2;stroke-width:5;stroke-miterlimit:10;}
	.st2{fill:none;stroke:#06A64F;stroke-width:5;stroke-miterlimit:10;}
	.st3{fill:none;stroke:#F15B2B;stroke-width:5;stroke-miterlimit:10;}
	.st4{fill:none;stroke:#231F20;stroke-width:3;stroke-linecap:round;stroke-miterlimit:10;}
	.st5{fill:#231F20;}
</style>
<title>Asset 1</title>
<g>
	<g id="Layer_1-2">
		<g id="Layer_1-2-2">
			<g id="Layer_1-2-2-2">
				<line class="st0" x1="109.8" y1="174.9" x2="335.5" y2="72.6"/>
				<line class="st1" x1="109.8" y1="214.5" x2="335.5" y2="112.2"/>
				<line class="st2" x1="109.8" y1="194.2" x2="335.5" y2="91.9"/>
				<line class="st3" x1="109.8" y1="233.9" x2="335.5" y2="131.5"/>
				<polyline class="st4" points="338.9,263.8 109.2,263.8 109.2,35.1 				"/>
				<polygon class="st5" points="336.7,261 337.9,263.8 336.7,266.7 343.4,263.8 				"/>
				<polygon class="st5" points="109.2,29.6 112.4,37.3 109.2,35.5 106.1,37.3 				"/>
			</g>
		</g>
		<g id="Layer_1-2-3">
			<g id="Layer_1-2-2-3">
				<line class="st0" x1="424.9" y1="174.9" x2="658.6" y2="69"/>
				<line class="st1" x1="424.3" y1="175.2" x2="658.6" y2="141.4"/>
				<line class="st2" x1="424.9" y1="174.9" x2="658.6" y2="111.7"/>
				<line class="st3" x1="424.3" y1="175" x2="657.5" y2="239.9"/>
				<polyline class="st4" points="654,263.8 424.4,263.8 424.4,35.1 				"/>
				<polygon class="st5" points="651.8,261 653,263.8 651.8,266.7 658.6,263.8 				"/>
				<polygon class="st5" points="424.4,29.6 427.5,37.3 424.4,35.5 421.2,37.3 				"/>
			</g>
		</g>
		<g id="Layer_1-2-4">
			<g id="Layer_1-2-2-4">
				<line class="st0" x1="721.4" y1="185.8" x2="955.1" y2="79.9"/>
				<line class="st1" x1="720.4" y1="212.2" x2="953.8" y2="148.3"/>
				<line class="st2" x1="719.9" y1="147.8" x2="952.8" y2="155.1"/>
				<line class="st3" x1="719.6" y1="126.8" x2="953" y2="62.9"/>
				<polyline class="st4" points="949.8,263.8 720.1,263.8 720.1,35.1 				"/>
				<polygon class="st5" points="947.6,261 948.8,263.8 947.6,266.7 954.3,263.8 				"/>
				<polygon class="st5" points="720.1,29.6 723.3,37.3 720.1,35.5 717,37.3 				"/>
			</g>
		</g>
	</g>
</g>
</svg>
